# Blender 3.6.0
# www.blender.org
mtllib naveExpress.mtl
o Cube
v 1.000000 1.000000 -1.000000
v 1.000000 -1.000000 -1.000000
v 1.000000 1.000000 1.000000
v 1.000000 -1.000000 1.000000
v -1.000000 1.000000 -1.000000
v -1.000000 -1.000000 -1.000000
v -1.000000 1.000000 1.000000
v -1.000000 -1.000000 1.000000
v 2.617077 -1.474110 -1.945727
v 2.617077 -2.300801 -1.945727
v 2.617077 -1.474110 -0.723516
v 2.617077 -2.300801 -0.723516
vn -0.0000 1.0000 -0.0000
vn -0.0000 -0.0000 1.0000
vn -1.0000 -0.0000 -0.0000
vn -0.0000 -1.0000 -0.0000
vn 0.7293 -0.0000 0.6842
vn -0.0000 -0.0000 -1.0000
vn 1.0000 -0.0000 -0.0000
vn -0.5048 -0.0000 -0.8632
vn -0.6268 -0.7792 -0.0000
vn 0.8371 0.5471 -0.0000
vt 0.875000 0.500000
vt 0.625000 0.750000
vt 0.625000 0.500000
vt 0.375000 1.000000
vt 0.375000 0.750000
vt 0.625000 0.000000
vt 0.375000 0.250000
vt 0.375000 0.000000
vt 0.375000 0.500000
vt 0.125000 0.750000
vt 0.125000 0.500000
vt 0.625000 0.250000
vt 0.875000 0.750000
vt 0.625000 1.000000
s 0
usemtl Material
f 5/1/1 3/2/1 1/3/1
f 3/2/2 8/4/2 4/5/2
f 7/6/3 6/7/3 8/8/3
f 2/9/4 8/10/4 6/11/4
f 4/5/5 11/2/5 3/2/5
f 5/12/6 2/9/6 6/7/6
f 9/3/7 12/5/7 10/9/7
f 2/9/8 9/3/8 10/9/8
f 2/9/9 12/5/9 4/5/9
f 1/3/10 11/2/10 9/3/10
f 5/1/1 7/13/1 3/2/1
f 3/2/2 7/14/2 8/4/2
f 7/6/3 5/12/3 6/7/3
f 2/9/4 4/5/4 8/10/4
f 4/5/5 12/5/5 11/2/5
f 5/12/6 1/3/6 2/9/6
f 9/3/7 11/2/7 12/5/7
f 2/9/8 1/3/8 9/3/8
f 2/9/9 10/9/9 12/5/9
f 1/3/10 3/2/10 11/2/10
